<?xml version="1.0" encoding="UTF-8"?>
<svg version="1.1" xmlns="http://www.w3.org/2000/svg" width="33" height="38">
<path d="M0 0 C10.89 0 21.78 0 33 0 C33 12.54 33 25.08 33 38 C22.11 38 11.22 38 0 38 C0 25.46 0 12.92 0 0 Z " fill="#CB9F3C" transform="translate(0,0)"/>
<path d="M0 0 C0.66 0 1.32 0 2 0 C2 1.32 2 2.64 2 4 C3.65 4 5.3 4 7 4 C6.67 4.66 6.34 5.32 6 6 C5.34 6 4.68 6 4 6 C4.33 7.98 4.66 9.96 5 12 C4.236875 11.62875 3.47375 11.2575 2.6875 10.875 C1.800625 10.58625 0.91375 10.2975 0 10 C-0.99 10.66 -1.98 11.32 -3 12 C-2.67 10.02 -2.34 8.04 -2 6 C-2.99 5.67 -3.98 5.34 -5 5 C-5 4.67 -5 4.34 -5 4 C-3.35 4 -1.7 4 0 4 C0 2.68 0 1.36 0 0 Z " fill="#F6F0E0" transform="translate(14,11)"/>
<path d="M0 0 C0.33 0 0.66 0 1 0 C1 1.98 1 3.96 1 6 C-1.64 6 -4.28 6 -7 6 C-6.21625 5.38125 -5.4325 4.7625 -4.625 4.125 C-2.03162353 2.10141339 -2.03162353 2.10141339 0 0 Z " fill="#F7ECD8" transform="translate(32,32)"/>
</svg>
